<svg width="12" height="656" viewBox="0 0 12 656" fill="none" xmlns="http://www.w3.org/2000/svg">
<path d="M0.666667 6C0.666666 8.94552 3.05448 11.3333 6 11.3333C8.94552 11.3333 11.3333 8.94552 11.3333 6C11.3333 3.05448 8.94552 0.666667 6 0.666667C3.05448 0.666666 0.666667 3.05448 0.666667 6ZM0.666638 650C0.666638 652.945 3.05445 655.333 5.99997 655.333C8.94549 655.333 11.3333 652.945 11.3333 650C11.3333 647.054 8.94549 644.667 5.99997 644.667C3.05445 644.667 0.666638 647.054 0.666638 650ZM5 6L4.99997 650L6.99997 650L7 6L5 6Z" fill="white" fill-opacity="0.38"/>
</svg>
